<svg xmlns="http://www.w3.org/2000/svg" shape-rendering="geometricPrecision" text-rendering="geometricPrecision" image-rendering="optimizeQuality" fill-rule="evenodd" clip-rule="evenodd" viewBox="0 0 492 512.324"><circle fill="#39BF46" cx="231.181" cy="231.181" r="231.181"/><path fill="#44944D" d="M437.687 127.171C471.6 167.894 492 220.259 492 277.396c0 129.746-105.183 234.928-234.928 234.928-103.431 0-191.249-66.843-222.619-159.684 40.74 65.851 113.605 109.722 196.728 109.722 127.682 0 231.181-103.499 231.181-231.181 0-37.412-8.899-72.749-24.675-104.01z"/><path fill="#fff" fill-rule="nonzero" d="M206.868 125.727l44.137 41.897c3.142 2.795 3.422 7.626.627 10.768l-.694.688-44.406 42.137c-3.142 2.795-7.973 2.514-10.768-.628a7.584 7.584 0 01-1.923-5.07l-.005-27.013h-38.362c-2.596 0-4.979 1.082-6.702 2.806-1.725 1.723-2.806 4.106-2.806 6.702v87.517c0 2.592 1.081 4.973 2.811 6.702v.067a9.45 9.45 0 006.697 2.744h151.414a9.534 9.534 0 006.727-2.78 9.537 9.537 0 002.78-6.733v-87.517a9.536 9.536 0 00-2.774-6.733c-1.755-1.693-4.137-2.775-6.733-2.775h-10.794v-32.389h10.794c11.537 0 22.024 4.713 29.604 12.293v.066c7.58 7.584 12.293 18.041 12.293 29.538v87.517c0 11.487-4.719 21.954-12.298 29.538l-.066.067c-7.585 7.579-18.052 12.298-29.533 12.298H155.474c-11.477 0-21.948-4.724-29.564-12.334-7.62-7.549-12.333-18.026-12.333-29.569v-87.517c0-11.538 4.713-22.025 12.293-29.604 7.579-7.58 18.066-12.293 29.604-12.293h38.352l-.005-24.994a7.642 7.642 0 017.641-7.64c2.111 0 4.024.856 5.406 2.244z"/></svg>