<svg xmlns="http://www.w3.org/2000/svg" viewBox="0 0 48 48" id="weather">
  <path fill="#ffc239" d="M39 24a15.005 15.005 0 0 1-25.61 10.61 1.015 1.015 0 0 1-.13-.18.998.998 0 0 1-.16-.53 1.052 1.052 0 0 1 .29-.71l19.8-19.8a1.014 1.014 0 0 1 1.42 0A15.06 15.06 0 0 1 39 24Z"></path>
  <path fill="#ffe266" d="M38.65 20.79A27.151 27.151 0 0 1 15.04 34.5c-.6 0-1.19-.02-1.78-.07a.998.998 0 0 1-.16-.53 1.052 1.052 0 0 1 .29-.71l19.8-19.8a1.014 1.014 0 0 1 1.42 0 14.914 14.914 0 0 1 4.04 7.4Z"></path>
  <path fill="#ffc239" d="M44 25h-2a1 1 0 0 1 0-2h2a1 1 0 0 1 0 2zm-5.857 14.143a.997.997 0 0 1-.707-.293l-1.415-1.415a1 1 0 0 1 1.414-1.414l1.415 1.415a1 1 0 0 1-.707 1.707zM24 45a1 1 0 0 1-1-1v-2a1 1 0 0 1 2 0v2a1 1 0 0 1-1 1z"></path>
  <path fill="#333" d="m34.56 14.8-6.02 6.03a1.007 1.007 0 0 1-.71.29H10.88a5.13 5.13 0 0 1-1.66-9.99q-.03-.33-.03-.66A7.898 7.898 0 0 1 22.9 5.13a6.366 6.366 0 0 1 2.24-.47 1.62 1.62 0 0 1 .22-.01 6.528 6.528 0 0 1 6.52 6.49 5.01 5.01 0 0 1 2.86 2.51.987.987 0 0 1-.18 1.15Z"></path>
  <path fill="#4d4d4d" d="M25.14 4.66a22.113 22.113 0 0 1-9.32 16.46h-4.94a5.13 5.13 0 0 1-1.66-9.99q-.03-.33-.03-.66A7.898 7.898 0 0 1 22.9 5.13a6.366 6.366 0 0 1 2.24-.47Z"></path>
  <path fill="#4fd7f7" d="M13.507 25.94a1 1 0 0 1-.94-1.342l.533-1.466a1 1 0 0 1 1.88.683l-.533 1.466a1 1 0 0 1-.94.659zm-2.133 5.86a1 1 0 0 1-.94-1.342l1.066-2.93a1 1 0 0 1 1.88.683l-1.066 2.93a1 1 0 0 1-.94.659zm-2.796-4.396a1 1 0 0 1-.94-1.342l1.066-2.93a1 1 0 0 1 1.88.683l-1.066 2.931a1 1 0 0 1-.94.658zm-1.6 4.396a1 1 0 0 1-.94-1.343l.534-1.465a1 1 0 0 1 1.88.686l-.534 1.465a1 1 0 0 1-.94.657zm9.659-4.396a1 1 0 0 1-.94-1.342l1.066-2.93a1 1 0 0 1 1.88.683l-1.066 2.931a1 1 0 0 1-.94.658z"></path>
  <path fill="#4d4d4d" d="M4 45a1 1 0 0 1-.707-1.707l40-40a1 1 0 1 1 1.414 1.414l-40 40A.997.997 0 0 1 4 45Z"></path>
</svg>
