<svg xmlns="http://www.w3.org/2000/svg" shape-rendering="geometricPrecision" text-rendering="geometricPrecision" image-rendering="optimizeQuality" fill-rule="evenodd" clip-rule="evenodd" viewBox="0 0 512 457.794"><path fill="#311300" fill-rule="nonzero" d="M3.927 436.902c14.186-15.021 19.168-37.317 24.042-59.143 8.005-35.841 15.776-70.623 58.144-84.547l.643-.189c13.481-4.211 27.167-4.733 40.71-1.579.36-1.188 1.348-2.427 2.096-3.409l66.041-88.941a11.888 11.888 0 015.4-4.072L441.671 13.441l.546-.388c17.83-13.66 34.269-15.405 46.72-10.689a35.025 35.025 0 0114.349 10.128c3.657 4.308 6.259 9.49 7.625 15.079 3.074 12.566-.196 27.149-11.928 38.168L283.317 288.89a11.904 11.904 0 01-4.956 3.095c-.263.168-.534.326-.813.475-18.296 9.774-31.236 15.44-43.128 20.646-16.813 7.363-31.455 13.775-56.011 29.791a8.316 8.316 0 01-1.634.843c2.326 17.346-1.952 33.604-10.363 47.962-11.902 20.318-32.24 36.627-53.376 46.401-17.22 7.972-35.852 12.687-53.584 15.516-17.352 2.768-33.799 3.715-47.111 4.168-11.387.357-16.463-13.606-8.414-20.885z"/><path fill="#C9C7CD" d="M139.236 295.058l60.17-81.033c.329.297.676.58 1.044.844 25.953 18.71 47.926 43.269 63.593 71.168l.006.011c-37.121 19.03-51.655 20.702-89.997 45.429l-.242-.769c-5.591-17.299-17.56-28.896-34.574-35.65z"/><path fill="#A4A0B1" d="M151.061 300.957c-3.619-2.246-8.097-4.318-11.818-5.936l59.058-82.138c.62.733 1.336 1.401 2.149 1.986a217.744 217.744 0 017.91 5.982l-57.299 80.106z"/><path fill="#E37C5D" d="M274.697 280.599c-16.616-29.727-39.637-55.504-67.268-75.426L448.885 22.998c40.172-31.403 66.263 11.992 41.479 34.45L274.697 280.599z"/><path fill="#CC5E3B" d="M217.652 212.979a233.219 233.219 0 00-10.222-7.806L448.884 22.998c14.177-11.082 26.596-12.841 35.648-9.501l-266.88 199.482z"/><path fill="#F9D98C" d="M11.965 445.801c40.086-41.262 15.674-120.772 77.849-141.206a66.604 66.604 0 0130.25-2.44 66.71 66.71 0 0122.969 7.946 43.555 43.555 0 0115.312 15.115 47.295 47.295 0 014.082 9.147c13.164 40.909-19.255 76.617-54.403 92.872-32.286 14.948-70.217 17.727-96.059 18.607v-.041z"/><path fill="#FFAB45" d="M11.966 445.801c40.086-41.261 15.673-120.772 77.849-141.206a66.6 66.6 0 0130.25-2.44 66.677 66.677 0 0116.746 4.834c-8.906 12.529-22.123 20.299-38.41 25.457-27.286 8.639-39.301 29.041-45.677 55.993-8.456 35.738-9.084 41.727-18.182 56.128-8.148.681-15.78 1.044-22.578 1.275l.002-.041z"/></svg>