<svg xmlns="http://www.w3.org/2000/svg" shape-rendering="geometricPrecision" text-rendering="geometricPrecision" image-rendering="optimizeQuality" fill-rule="evenodd" clip-rule="evenodd" viewBox="0 0 512 468.554"><path fill="#FD5" d="M28.619 122.962H88.36l36.214-92.199c.287-.725.621-1.441.999-2.144H97.632c-18.963 0-36.218 7.77-48.731 20.283-12.512 12.512-20.282 29.767-20.282 48.73v25.33zm85.036 0h108.681l36.129-91.983c.315-.798.687-1.587 1.116-2.36H150.713l-37.058 94.343zm133.738 0h105.784l36.214-92.199c.286-.725.621-1.441.999-2.144H284.447l-37.054 94.343zm131.079 0h104.909v-25.33c0-18.947-7.773-36.205-20.295-48.724-12.255-12.258-29.061-19.967-47.563-20.276l-37.051 94.33z"/><path fill="#fff" fill-rule="nonzero" d="M483.381 151.575H28.619v219.35c0 18.956 7.776 36.205 20.289 48.717 12.519 12.519 29.777 20.292 48.724 20.292h316.736c18.941 0 36.196-7.78 48.715-20.298 12.518-12.519 20.298-29.774 20.298-48.711v-219.35z"/><path fill="#212121" fill-rule="nonzero" d="M97.632 0h316.736c26.861 0 51.272 10.989 68.953 28.673C501.017 46.364 512 70.788 512 97.632v273.293c0 26.841-10.995 51.255-28.682 68.946-17.691 17.69-42.112 28.683-68.95 28.683H97.632c-26.845 0-51.269-10.986-68.959-28.677C10.989 422.193 0 397.785 0 370.925V97.632c0-26.867 10.983-51.281 28.667-68.965C46.351 10.983 70.765 0 97.632 0zm140.509 277.571l-3.333 105.58 36.408 1.152 3.276-104 42.188 43.498 26.112-25.403-87.819-90.578-85.765 88.533 26.125 25.403 42.808-44.188v.003zM28.619 122.962H88.36l36.214-92.199c.287-.725.621-1.441.999-2.144H97.632c-18.963 0-36.218 7.77-48.731 20.283-12.512 12.512-20.282 29.767-20.282 48.73v25.33zm85.036 0h108.681l36.129-91.983c.315-.798.687-1.587 1.116-2.36H150.713l-37.058 94.343zm133.738 0h105.784l36.214-92.199c.286-.725.621-1.441.999-2.144H284.447l-37.054 94.343zm131.079 0h104.909v-25.33c0-18.947-7.773-36.205-20.295-48.724-12.255-12.258-29.061-19.967-47.563-20.276l-37.051 94.33zm104.909 28.613H28.619v219.35c0 18.956 7.776 36.205 20.289 48.717 12.519 12.519 29.777 20.292 48.724 20.292h316.736c18.941 0 36.196-7.78 48.715-20.298 12.518-12.519 20.298-29.774 20.298-48.711v-219.35z"/></svg>