<svg xmlns="http://www.w3.org/2000/svg" shape-rendering="geometricPrecision" text-rendering="geometricPrecision" image-rendering="optimizeQuality" fill-rule="evenodd" clip-rule="evenodd" viewBox="0 0 512 476.91"><path fill="#257FC4" fill-rule="nonzero" d="M382.31 86.17c46.02-7.38 83.26 12.7 105.95 44.31 9.74 13.56 16.74 29.28 20.51 45.81 3.76 16.47 4.33 33.85 1.23 50.81-7.48 41.05-35.98 79.4-91.85 96.73h-29.69l49.01-73.1-96.96.89-6.87.07-21.89 76.18H96.41l-1.33-.17c-37.86-4.82-65.78-26.15-81.27-53.69C5.26 258.81.53 241.64.04 224.27c-.48-17.4 3.33-35 11.86-51.02 13.87-26.03 39.98-47.65 80-56.99 9.04-36.49 28.57-64.58 53.65-84.06C168.89 14.09 197.04 3.55 226 .76c28.82-2.79 58.52 2.12 85.12 14.89 29.27 14.04 54.75 37.49 71.19 70.52z"/><path fill="#88DFF3" d="M390.55 99.6c116.15-11.83 162.8 178.63 10.94 213.89h-6.1l42.08-62.76-96.96.89-6.87.07-17.76 61.8h-219c-101.81-12.96-120.52-162.65 7.03-185.02C129.84-8.02 309.63-24.03 368.63 90.94c-7.42 2.7-14.61 6.12-21.46 10.18-15.13 8.96-28.69 21.07-39.64 35.33-2.37 3.1-1.77 7.53 1.33 9.9a7.07 7.07 0 009.9-1.33c9.83-12.81 22.02-23.68 35.61-31.73 11.29-6.7 23.54-11.43 36.18-13.69z"/><path fill="#A3EDFD" d="M391 99.52c28.71-2.8 53.14 6.77 71.36 23.29 13.45 45.37-.64 100.15-55.28 128.2l-66.57.61-6.87.07-3.53 12.29H66.33c-19.77-2.51-36.39-10.2-49.42-21.09-11.22-46.81 13.79-101.58 87-114.42C129.84-8.02 309.63-24.03 368.63 90.94c-7.42 2.7-14.61 6.12-21.46 10.18-15.13 8.96-28.69 21.07-39.64 35.33-2.37 3.1-1.77 7.53 1.33 9.9a7.07 7.07 0 009.9-1.33c9.83-12.81 22.02-23.68 35.61-31.73 11.42-6.77 23.82-11.54 36.63-13.77z"/><path fill="#fff" d="M324.44 82c.85-44.75-107.25-71.9-151.95-1.41 48.42-28.01 106.52-27.9 151.95 1.41z"/><path fill="#FFCD52" d="M420.2 260.03l-79.62.75-29.09 101.25 39.47.38L309.1 467.8l110.72-134.78h-48.55z"/><path fill="#F7C043" d="M363.23 261.06l-22.12.41-27.88 100 37.96.87L309.1 467.8l56.49-115.46-33.67-5.74z"/><path fill="#257FC4" fill-rule="nonzero" d="M115.44 387.13l-13.58 23.02 26.7.26-.14 18.64-26.77-.25 13.16 23.3-16.23 9.14-13.14-23.26-13.59 23.04-16.09-9.5 13.58-23.03-26.71-.25.15-18.65 26.77.26-13.16-23.3 16.23-9.15 13.14 23.26 13.59-23.03 16.09 9.5zm101.77-73.96c29.48.28 56.62.54 85.79.81l-.14 18.65-26.78-.26 13.17 23.31-16.23 9.14-13.14-23.26-13.6 23.04-16.09-9.51 13.59-23.02-26.71-.25.14-18.65zm-127.7.09l85.78.81-.14 18.65-26.77-.26 13.16 23.3-16.23 9.15-13.14-23.26-13.59 23.03-16.09-9.5 13.58-23.02-26.71-.26.15-18.64zm101.61 112l26.77.25-13.16-23.3 16.23-9.14 13.14 23.26 13.59-23.04 16.09 9.51-13.58 23.02 26.71.25-.15 18.65-26.77-.25 13.16 23.3-16.23 9.14-13.14-23.26-13.59 23.04-16.09-9.51 13.58-23.02-26.71-.25.15-18.65z"/></svg>