<svg xmlns="http://www.w3.org/2000/svg" shape-rendering="geometricPrecision" text-rendering="geometricPrecision" image-rendering="optimizeQuality" fill-rule="evenodd" clip-rule="evenodd" viewBox="0 0 512 417.92"><path fill="#257FC4" fill-rule="nonzero" d="M100.03 368.87c-5.47 0-9.9-4.43-9.9-9.9 0-5.47 4.43-9.9 9.9-9.9h180.21c5.47 0 9.9 4.43 9.9 9.9 0 5.47-4.43 9.9-9.9 9.9H100.03zM382.4 85.68c37.63-5.78 69.46 6.79 92.28 28.99 13.37 13 23.54 29.31 29.86 47.11 6.26 17.67 8.75 36.93 6.82 55.98-3.87 38.03-25.15 75.01-68.85 96.89-13.77 6.89-23.76 10.38-34.15 12.18-10.3 1.78-19.92 1.8-33.59 1.8H118.51c-16.37.2-29.86.37-47.83-6.15-27.69-10.05-48.04-29.9-59.61-53.58H11C2.58 251.66-1.17 232.35.32 213.3c1.5-19.22 8.3-38.2 20.97-54.58 15.06-19.49 38.27-35.14 70.44-42.8 9.14-36.26 28.64-64.21 53.65-83.63C168.79 14.13 197.01 3.56 226.04.76c28.89-2.8 58.66 2.13 85.33 14.93 29.14 13.98 54.53 37.25 71.03 69.99zM195.52 398.13c5.46 0 9.9 4.43 9.9 9.89 0 5.47-4.44 9.9-9.9 9.9h-77.88c-5.46 0-9.89-4.43-9.89-9.9 0-5.46 4.43-9.89 9.89-9.89h77.88zm233.34 0c5.46 0 9.9 4.43 9.9 9.89 0 5.47-4.44 9.9-9.9 9.9H245.43c-5.46 0-9.9-4.43-9.9-9.9 0-5.46 4.44-9.89 9.9-9.89h183.43zm-107.58-29.26c-5.47 0-9.9-4.43-9.9-9.9 0-5.47 4.43-9.9 9.9-9.9h65.35c5.47 0 9.9 4.43 9.9 9.9 0 5.47-4.43 9.9-9.9 9.9h-65.35z"/><path fill="#88DFF3" d="M376.68 102.45c114.77-26.06 171.28 142.23 58.97 198.46-24.44 12.23-34.94 12.3-60.88 12.3H126.79c-18.9 0-32.65 1.42-50.87-5.19C-5.76 278.37-12.74 149.58 104.59 129 130.32-6.42 308.18-22.72 367.54 90.47c-9 2.87-17.69 6.81-25.9 11.68-15.07 8.93-28.58 20.98-39.47 35.17-2.36 3.09-1.77 7.51 1.32 9.86a7.03 7.03 0 009.86-1.32c9.79-12.76 21.92-23.58 35.45-31.59 8.79-5.22 18.18-9.24 27.88-11.82z"/><path fill="#A3EDFD" d="M377.52 102.23c34.18-7.5 63.14 2.27 83.95 21.14 15.96 53.86-7.04 121.05-91.02 140.55H67.17c-19.68-2.51-36.22-10.16-49.2-21C6.81 196.32 31.7 141.79 104.59 129 130.32-6.42 308.18-22.72 367.54 90.47c-9 2.87-17.69 6.81-25.9 11.68-15.07 8.93-28.58 20.98-39.47 35.17-2.36 3.09-1.77 7.51 1.32 9.86a7.03 7.03 0 009.86-1.32c9.79-12.76 21.92-23.58 35.45-31.59 9.05-5.37 18.72-9.47 28.72-12.04z"/><path fill="#fff" d="M324.15 82.73c.85-44.54-106.77-71.58-151.28-1.39 48.21-27.89 106.05-27.78 151.28 1.39z"/></svg>